<?xml version="1.0" encoding="UTF-8" standalone="no"?>
<!DOCTYPE svg PUBLIC "-//W3C//DTD SVG 1.1//EN"
 "http://www.w3.org/Graphics/SVG/1.1/DTD/svg11.dtd">
<!-- Generated by graphviz version 8.0.5 (20230430.1635)
 -->
<!-- Title: RedNet System Design Pages: 1 -->
<svg width="1124pt" height="1062pt"
 viewBox="0.00 0.00 1124.00 1061.70" xmlns="http://www.w3.org/2000/svg" xmlns:xlink="http://www.w3.org/1999/xlink">
<g id="graph0" class="graph" transform="scale(1 1) rotate(0) translate(144 917.7)">
<title>RedNet System Design</title>
<polygon fill="white" stroke="none" points="-144,144 -144,-917.7 980,-917.7 980,144 -144,144"/>
<text text-anchor="middle" x="418" y="-7.75" font-family="Sans-Serif" font-size="15.00" fill="#2d3436">RedNet System Design</text>
<g id="clust1" class="cluster">
<title>cluster_External Services</title>
<path fill="#e5f5fd" stroke="#aeb6be" d="M20,-34C20,-34 540,-34 540,-34 546,-34 552,-40 552,-46 552,-46 552,-426.1 552,-426.1 552,-432.1 546,-438.1 540,-438.1 540,-438.1 20,-438.1 20,-438.1 14,-438.1 8,-432.1 8,-426.1 8,-426.1 8,-46 8,-46 8,-40 14,-34 20,-34"/>
<text text-anchor="middle" x="60.62" y="-422.7" font-family="Sans-Serif" font-size="12.00" fill="#2d3436">External Services</text>
</g>
<g id="clust2" class="cluster">
<title>cluster_Auth Management Service</title>
<path fill="#ebf3e7" stroke="#aeb6be" d="M172,-42C172,-42 408,-42 408,-42 414,-42 420,-48 420,-54 420,-54 420,-395.85 420,-395.85 420,-401.85 414,-407.85 408,-407.85 408,-407.85 172,-407.85 172,-407.85 166,-407.85 160,-401.85 160,-395.85 160,-395.85 160,-54 160,-54 160,-48 166,-42 172,-42"/>
<text text-anchor="middle" x="237" y="-392.45" font-family="Sans-Serif" font-size="12.00" fill="#2d3436">Auth Management Service</text>
</g>
<g id="clust3" class="cluster">
<title>cluster_Sse Service</title>
<path fill="#ebf3e7" stroke="#aeb6be" d="M440,-232.8C440,-232.8 532,-232.8 532,-232.8 538,-232.8 544,-238.8 544,-244.8 544,-244.8 544,-395.85 544,-395.85 544,-401.85 538,-407.85 532,-407.85 532,-407.85 440,-407.85 440,-407.85 434,-407.85 428,-401.85 428,-395.85 428,-395.85 428,-244.8 428,-244.8 428,-238.8 434,-232.8 440,-232.8"/>
<text text-anchor="middle" x="465.62" y="-392.45" font-family="Sans-Serif" font-size="12.00" fill="#2d3436">Sse Service</text>
</g>
<g id="clust4" class="cluster">
<title>cluster_Chat Service</title>
<path fill="#ebf3e7" stroke="#aeb6be" d="M28,-42C28,-42 120,-42 120,-42 126,-42 132,-48 132,-54 132,-54 132,-395.85 132,-395.85 132,-401.85 126,-407.85 120,-407.85 120,-407.85 28,-407.85 28,-407.85 22,-407.85 16,-401.85 16,-395.85 16,-395.85 16,-54 16,-54 16,-48 22,-42 28,-42"/>
<text text-anchor="middle" x="56.62" y="-392.45" font-family="Sans-Serif" font-size="12.00" fill="#2d3436">Chat Service</text>
</g>
<g id="clust5" class="cluster">
<title>cluster_Internal Services</title>
<path fill="#e5f5fd" stroke="#aeb6be" d="M572,-34C572,-34 816,-34 816,-34 822,-34 828,-40 828,-46 828,-46 828,-426.1 828,-426.1 828,-432.1 822,-438.1 816,-438.1 816,-438.1 572,-438.1 572,-438.1 566,-438.1 560,-432.1 560,-426.1 560,-426.1 560,-46 560,-46 560,-40 566,-34 572,-34"/>
<text text-anchor="middle" x="611.88" y="-422.7" font-family="Sans-Serif" font-size="12.00" fill="#2d3436">Internal Services</text>
</g>
<g id="clust6" class="cluster">
<title>cluster_Session Service</title>
<path fill="#ebf3e7" stroke="#aeb6be" d="M716,-42C716,-42 808,-42 808,-42 814,-42 820,-48 820,-54 820,-54 820,-395.85 820,-395.85 820,-401.85 814,-407.85 808,-407.85 808,-407.85 716,-407.85 716,-407.85 710,-407.85 704,-401.85 704,-395.85 704,-395.85 704,-54 704,-54 704,-48 710,-42 716,-42"/>
<text text-anchor="middle" x="752.5" y="-392.45" font-family="Sans-Serif" font-size="12.00" fill="#2d3436">Session Service</text>
</g>
<!-- 27b11bed15944d44827e49341b960d53 -->
<g id="node1" class="node">
<title>27b11bed15944d44827e49341b960d53</title>
<image xlink:href="C:\Users\Shevc\AppData\Local\Packages\PythonSoftwareFoundation.Python.3.11_qbz5n2kfra8p0\LocalCache\local-packages\Python311\site-packages\resources/onprem/client\user.png" width="100.8px" height="100.8px" preserveAspectRatio="xMinYMin meet" x="291.6" y="-755.7"/>
<text text-anchor="middle" x="342" y="-640.3" font-family="Sans-Serif" font-size="13.00" fill="#2d3436">spa</text>
</g>
<!-- 3eb702f0097243b98cebf37191c0ff7c -->
<g id="node2" class="node">
<title>3eb702f0097243b98cebf37191c0ff7c</title>
<image xlink:href="C:\Users\Shevc\AppData\Local\Packages\PythonSoftwareFoundation.Python.3.11_qbz5n2kfra8p0\LocalCache\local-packages\Python311\site-packages\resources/programming/framework\spring.png" width="100.8px" height="100.8px" preserveAspectRatio="xMinYMin meet" x="291.6" y="-564.9"/>
<text text-anchor="middle" x="342" y="-449.5" font-family="Sans-Serif" font-size="13.00" fill="#2d3436">agw</text>
</g>
<!-- 27b11bed15944d44827e49341b960d53&#45;&gt;3eb702f0097243b98cebf37191c0ff7c -->
<g id="edge1" class="edge">
<title>27b11bed15944d44827e49341b960d53&#45;&gt;3eb702f0097243b98cebf37191c0ff7c</title>
<path fill="none" stroke="#0ecc00" d="M342,-636.96C342,-636.96 342,-593.69 342,-593.69"/>
<polygon fill="#0ecc00" stroke="#0ecc00" points="345.5,-593.69 342,-583.69 338.5,-593.69 345.5,-593.69"/>
</g>
<!-- 5ca1c24c2fc543feaa10009ed1108475 -->
<g id="node3" class="node">
<title>5ca1c24c2fc543feaa10009ed1108475</title>
<image xlink:href="C:\Users\Shevc\AppData\Local\Packages\PythonSoftwareFoundation.Python.3.11_qbz5n2kfra8p0\LocalCache\local-packages\Python311\site-packages\resources/programming/framework\spring.png" width="100.8px" height="100.8px" preserveAspectRatio="xMinYMin meet" x="291.6" y="-359.6"/>
<text text-anchor="middle" x="342" y="-244.2" font-family="Sans-Serif" font-size="13.00" fill="#2d3436">bl server</text>
</g>
<!-- 3eb702f0097243b98cebf37191c0ff7c&#45;&gt;5ca1c24c2fc543feaa10009ed1108475 -->
<g id="edge2" class="edge">
<title>3eb702f0097243b98cebf37191c0ff7c&#45;&gt;5ca1c24c2fc543feaa10009ed1108475</title>
<path fill="none" stroke="#0ecc00" stroke-dasharray="5,2" d="M342,-446.14C342,-446.14 342,-388.26 342,-388.26"/>
<polygon fill="#0ecc00" stroke="#0ecc00" points="345.5,-388.26 342,-378.26 338.5,-388.26 345.5,-388.26"/>
</g>
<!-- a8aa1688d35e466ea96ab64bf069fc83 -->
<g id="node6" class="node">
<title>a8aa1688d35e466ea96ab64bf069fc83</title>
<image xlink:href="C:\Users\Shevc\AppData\Local\Packages\PythonSoftwareFoundation.Python.3.11_qbz5n2kfra8p0\LocalCache\local-packages\Python311\site-packages\resources/programming/framework\spring.png" width="100.8px" height="100.8px" preserveAspectRatio="xMinYMin meet" x="435.6" y="-359.6"/>
<text text-anchor="middle" x="486" y="-244.2" font-family="Sans-Serif" font-size="13.00" fill="#2d3436">bl server</text>
</g>
<!-- 3eb702f0097243b98cebf37191c0ff7c&#45;&gt;a8aa1688d35e466ea96ab64bf069fc83 -->
<g id="edge3" class="edge">
<title>3eb702f0097243b98cebf37191c0ff7c&#45;&gt;a8aa1688d35e466ea96ab64bf069fc83</title>
<path fill="none" stroke="#0ecc00" stroke-dasharray="5,2" d="M392.36,-514C433.89,-514 486,-514 486,-514 486,-514 486,-388.4 486,-388.4"/>
<polygon fill="#0ecc00" stroke="#0ecc00" points="489.5,-388.4 486,-378.4 482.5,-388.4 489.5,-388.4"/>
</g>
<!-- f4bf86bd809e437783e9671ab3d262a0 -->
<g id="node7" class="node">
<title>f4bf86bd809e437783e9671ab3d262a0</title>
<image xlink:href="C:\Users\Shevc\AppData\Local\Packages\PythonSoftwareFoundation.Python.3.11_qbz5n2kfra8p0\LocalCache\local-packages\Python311\site-packages\resources/programming/framework\spring.png" width="100.8px" height="100.8px" preserveAspectRatio="xMinYMin meet" x="23.6" y="-359.6"/>
<text text-anchor="middle" x="74" y="-244.2" font-family="Sans-Serif" font-size="13.00" fill="#2d3436">bl server</text>
</g>
<!-- 3eb702f0097243b98cebf37191c0ff7c&#45;&gt;f4bf86bd809e437783e9671ab3d262a0 -->
<g id="edge4" class="edge">
<title>3eb702f0097243b98cebf37191c0ff7c&#45;&gt;f4bf86bd809e437783e9671ab3d262a0</title>
<path fill="none" stroke="#0ecc00" stroke-dasharray="5,2" d="M291.91,-514C214.34,-514 74,-514 74,-514 74,-514 74,-388.4 74,-388.4"/>
<polygon fill="#0ecc00" stroke="#0ecc00" points="77.5,-388.4 74,-378.4 70.5,-388.4 77.5,-388.4"/>
</g>
<!-- 7b9f4b54ae0443979587e0c9a9c3553d -->
<g id="node4" class="node">
<title>7b9f4b54ae0443979587e0c9a9c3553d</title>
<image xlink:href="C:\Users\Shevc\AppData\Local\Packages\PythonSoftwareFoundation.Python.3.11_qbz5n2kfra8p0\LocalCache\local-packages\Python311\site-packages\resources/onprem/database\postgresql.png" width="100.8px" height="100.8px" preserveAspectRatio="xMinYMin meet" x="167.6" y="-168.8"/>
<text text-anchor="middle" x="218" y="-53.4" font-family="Sans-Serif" font-size="13.00" fill="#2d3436">accounts</text>
</g>
<!-- 5ca1c24c2fc543feaa10009ed1108475&#45;&gt;7b9f4b54ae0443979587e0c9a9c3553d -->
<g id="edge6" class="edge">
<title>5ca1c24c2fc543feaa10009ed1108475&#45;&gt;7b9f4b54ae0443979587e0c9a9c3553d</title>
<path fill="none" stroke="#7b8894" d="M301.6,-240.98C301.6,-186.07 301.6,-118 301.6,-118 301.6,-118 279.08,-118 279.08,-118"/>
<polygon fill="#7b8894" stroke="#7b8894" points="279.08,-114.5 269.08,-118 279.08,-121.5 279.08,-114.5"/>
</g>
<!-- 40cc02f0ef384ba0a2699990e2615062 -->
<g id="node5" class="node">
<title>40cc02f0ef384ba0a2699990e2615062</title>
<image xlink:href="C:\Users\Shevc\AppData\Local\Packages\PythonSoftwareFoundation.Python.3.11_qbz5n2kfra8p0\LocalCache\local-packages\Python311\site-packages\resources/onprem/inmemory\redis.png" width="100.8px" height="100.8px" preserveAspectRatio="xMinYMin meet" x="311.6" y="-168.8"/>
<text text-anchor="middle" x="362" y="-53.4" font-family="Sans-Serif" font-size="13.00" fill="#2d3436">refresh tokens</text>
</g>
<!-- 5ca1c24c2fc543feaa10009ed1108475&#45;&gt;40cc02f0ef384ba0a2699990e2615062 -->
<g id="edge7" class="edge">
<title>5ca1c24c2fc543feaa10009ed1108475&#45;&gt;40cc02f0ef384ba0a2699990e2615062</title>
<path fill="none" stroke="#7b8894" d="M331.8,-240.86C331.8,-240.86 331.8,-197.59 331.8,-197.59"/>
<polygon fill="#7b8894" stroke="#7b8894" points="335.3,-197.59 331.8,-187.59 328.3,-197.59 335.3,-197.59"/>
</g>
<!-- b86b04b98591444b83f204a7b177615d -->
<g id="node9" class="node">
<title>b86b04b98591444b83f204a7b177615d</title>
<image xlink:href="C:\Users\Shevc\AppData\Local\Packages\PythonSoftwareFoundation.Python.3.11_qbz5n2kfra8p0\LocalCache\local-packages\Python311\site-packages\resources/onprem/queue\rabbitmq.png" width="100.8px" height="100.8px" preserveAspectRatio="xMinYMin meet" x="567.6" y="-168.8"/>
<text text-anchor="middle" x="618" y="-53.4" font-family="Sans-Serif" font-size="13.00" fill="#2d3436">notification queue</text>
</g>
<!-- 5ca1c24c2fc543feaa10009ed1108475&#45;&gt;b86b04b98591444b83f204a7b177615d -->
<g id="edge10" class="edge">
<title>5ca1c24c2fc543feaa10009ed1108475&#45;&gt;b86b04b98591444b83f204a7b177615d</title>
<path fill="none" stroke="#00dedb" d="M352,-240.83C352,-225.16 352,-213 352,-213 352,-213 607.92,-213 607.92,-213 607.92,-213 607.92,-197.65 607.92,-197.65"/>
<polygon fill="#00dedb" stroke="#00dedb" points="611.42,-197.65 607.92,-187.65 604.42,-197.65 611.42,-197.65"/>
</g>
<!-- 6cf841732bd54a66b41df10258b62c19 -->
<g id="node10" class="node">
<title>6cf841732bd54a66b41df10258b62c19</title>
<image xlink:href="C:\Users\Shevc\AppData\Local\Packages\PythonSoftwareFoundation.Python.3.11_qbz5n2kfra8p0\LocalCache\local-packages\Python311\site-packages\resources/programming/framework\spring.png" width="100.8px" height="100.8px" preserveAspectRatio="xMinYMin meet" x="711.6" y="-359.6"/>
<text text-anchor="middle" x="762" y="-244.2" font-family="Sans-Serif" font-size="13.00" fill="#2d3436">bl server</text>
</g>
<!-- 5ca1c24c2fc543feaa10009ed1108475&#45;&gt;6cf841732bd54a66b41df10258b62c19 -->
<g id="edge5" class="edge">
<title>5ca1c24c2fc543feaa10009ed1108475&#45;&gt;6cf841732bd54a66b41df10258b62c19</title>
<path fill="none" stroke="#00dedb" d="M372.2,-240.94C372.2,-232.63 372.2,-227 372.2,-227 372.2,-227 745.2,-227 745.2,-227 745.2,-227 745.2,-229.94 745.2,-229.94"/>
<polygon fill="#00dedb" stroke="#00dedb" points="741.7,-229.94 745.2,-239.94 748.7,-229.94 741.7,-229.94"/>
</g>
<!-- ebf0556bc01e4fa2ad498496c0ee7fac -->
<g id="node8" class="node">
<title>ebf0556bc01e4fa2ad498496c0ee7fac</title>
<image xlink:href="C:\Users\Shevc\AppData\Local\Packages\PythonSoftwareFoundation.Python.3.11_qbz5n2kfra8p0\LocalCache\local-packages\Python311\site-packages\resources/onprem/database\cassandra.png" width="100.8px" height="100.8px" preserveAspectRatio="xMinYMin meet" x="23.6" y="-168.8"/>
<text text-anchor="middle" x="74" y="-53.4" font-family="Sans-Serif" font-size="13.00" fill="#2d3436">messages</text>
</g>
<!-- f4bf86bd809e437783e9671ab3d262a0&#45;&gt;ebf0556bc01e4fa2ad498496c0ee7fac -->
<g id="edge8" class="edge">
<title>f4bf86bd809e437783e9671ab3d262a0&#45;&gt;ebf0556bc01e4fa2ad498496c0ee7fac</title>
<path fill="none" stroke="#7b8894" d="M57.2,-240.86C57.2,-240.86 57.2,-197.59 57.2,-197.59"/>
<polygon fill="#7b8894" stroke="#7b8894" points="60.7,-197.59 57.2,-187.59 53.7,-197.59 60.7,-197.59"/>
</g>
<!-- f4bf86bd809e437783e9671ab3d262a0&#45;&gt;b86b04b98591444b83f204a7b177615d -->
<g id="edge12" class="edge">
<title>f4bf86bd809e437783e9671ab3d262a0&#45;&gt;b86b04b98591444b83f204a7b177615d</title>
<path fill="none" stroke="#00dedb" d="M90.8,-240.97C90.8,-218.9 90.8,-200 90.8,-200 90.8,-200 587.76,-200 587.76,-200 587.76,-200 587.76,-197.53 587.76,-197.53"/>
<polygon fill="#00dedb" stroke="#00dedb" points="591.26,-197.53 587.76,-187.53 584.26,-197.53 591.26,-197.53"/>
</g>
<!-- b86b04b98591444b83f204a7b177615d&#45;&gt;a8aa1688d35e466ea96ab64bf069fc83 -->
<g id="edge13" class="edge">
<title>b86b04b98591444b83f204a7b177615d&#45;&gt;a8aa1688d35e466ea96ab64bf069fc83</title>
<path fill="none" stroke="#00dedb" d="M628.08,-186.57C628.08,-232.97 628.08,-286 628.08,-286 628.08,-286 547.09,-286 547.09,-286"/>
<polygon fill="#00dedb" stroke="#00dedb" points="547.09,-282.5 537.09,-286 547.09,-289.5 547.09,-282.5"/>
</g>
<!-- 6cf841732bd54a66b41df10258b62c19&#45;&gt;b86b04b98591444b83f204a7b177615d -->
<g id="edge11" class="edge">
<title>6cf841732bd54a66b41df10258b62c19&#45;&gt;b86b04b98591444b83f204a7b177615d</title>
<path fill="none" stroke="#00dedb" d="M711.77,-332C681.3,-332 648.24,-332 648.24,-332 648.24,-332 648.24,-197.57 648.24,-197.57"/>
<polygon fill="#00dedb" stroke="#00dedb" points="651.74,-197.57 648.24,-187.57 644.74,-197.57 651.74,-197.57"/>
</g>
<!-- 4a4b9dacafd44a87834742ef57df6b49 -->
<g id="node11" class="node">
<title>4a4b9dacafd44a87834742ef57df6b49</title>
<image xlink:href="C:\Users\Shevc\AppData\Local\Packages\PythonSoftwareFoundation.Python.3.11_qbz5n2kfra8p0\LocalCache\local-packages\Python311\site-packages\resources/onprem/database\cassandra.png" width="100.8px" height="100.8px" preserveAspectRatio="xMinYMin meet" x="711.6" y="-168.8"/>
<text text-anchor="middle" x="762" y="-53.4" font-family="Sans-Serif" font-size="13.00" fill="#2d3436">sessions</text>
</g>
<!-- 6cf841732bd54a66b41df10258b62c19&#45;&gt;4a4b9dacafd44a87834742ef57df6b49 -->
<g id="edge9" class="edge">
<title>6cf841732bd54a66b41df10258b62c19&#45;&gt;4a4b9dacafd44a87834742ef57df6b49</title>
<path fill="none" stroke="#7b8894" d="M778.8,-240.86C778.8,-240.86 778.8,-197.59 778.8,-197.59"/>
<polygon fill="#7b8894" stroke="#7b8894" points="782.3,-197.59 778.8,-187.59 775.3,-197.59 782.3,-197.59"/>
</g>
</g>
</svg>
